G04 #@! TF.GenerationSoftware,KiCad,Pcbnew,6.0.0-unknown-f1a38a6~86~ubuntu18.04.1*
G04 #@! TF.CreationDate,2019-05-07T14:54:44+02:00*
G04 #@! TF.ProjectId,sablier,7361626c-6965-4722-9e6b-696361645f70,1*
G04 #@! TF.SameCoordinates,Original*
G04 #@! TF.FileFunction,Profile,NP*
%FSLAX46Y46*%
G04 Gerber Fmt 4.6, Leading zero omitted, Abs format (unit mm)*
G04 Created by KiCad (PCBNEW 6.0.0-unknown-f1a38a6~86~ubuntu18.04.1) date 2019-05-07 14:54:44*
%MOMM*%
%LPD*%
G04 APERTURE LIST*
%ADD10C,0.050000*%
G04 APERTURE END LIST*
D10*
X179107446Y-116250000D02*
X170737635Y-101753062D01*
X155111140Y-127875000D02*
X172395749Y-127875000D01*
X140912458Y-96555662D02*
G75*
G02X141095471Y-97238675I-250000J-433013D01*
G01*
X144899444Y-80250000D02*
G75*
G02X147859188Y-77343751I6711696J-3875000D01*
G01*
X147859189Y-77343750D02*
G75*
G02X148948464Y-77812501I363091J-656250D01*
G01*
X166410718Y-96058623D02*
G75*
G02X166551683Y-95402781I433013J250000D01*
G01*
X166692648Y-94746939D02*
G75*
G02X166551683Y-95402781I-433013J-250000D01*
G01*
X154273816Y-77812500D02*
G75*
G02X148948464Y-77812500I-2662676J687500D01*
G01*
X155363092Y-77343751D02*
G75*
G02X158322836Y-80250000I-3751952J-6781249D01*
G01*
X166692648Y-94746939D02*
X158322836Y-80250000D01*
X130826531Y-127875000D02*
X148111140Y-127875000D01*
X131922138Y-102727352D02*
G75*
G02X132605151Y-102544339I433013J-250000D01*
G01*
X131922139Y-102727352D02*
X124114834Y-116250000D01*
X170099177Y-101547220D02*
G75*
G02X170737635Y-101753062I205445J-455842D01*
G01*
X144899444Y-80250000D02*
X137092139Y-93772649D01*
X136925471Y-104461326D02*
G75*
G02X136242458Y-104644339I-433013J250000D01*
G01*
X155111140Y-127875000D02*
G75*
G02X154361140Y-127125000I0J750000D01*
G01*
X140912458Y-96555662D02*
X137275151Y-94455662D01*
X179107446Y-116250000D02*
G75*
G02X172395749Y-127875000I-6711697J-3875000D01*
G01*
X166410718Y-96058623D02*
X169460718Y-101341378D01*
X170099176Y-101547220D02*
G75*
G02X169460718Y-101341378I-205445J455842D01*
G01*
X148861140Y-127125000D02*
G75*
G02X148111140Y-127875000I-750000J0D01*
G01*
X132605151Y-102544339D02*
X136242458Y-104644339D01*
X136925471Y-104461326D02*
X141095471Y-97238675D01*
X137275151Y-94455661D02*
G75*
G02X137092139Y-93772649I250000J433012D01*
G01*
X130826531Y-127875000D02*
G75*
G02X124114834Y-116250000I0J7750000D01*
G01*
X148861140Y-127125000D02*
G75*
G02X154361140Y-127125000I2750000J0D01*
G01*
X154273817Y-77812500D02*
G75*
G02X155363092Y-77343751I726183J-187500D01*
G01*
M02*
